<!DOCTYPE svg PUBLIC "-//W3C//DTD SVG 20010904//EN" "http://www.w3.org/TR/2001/REC-SVG-20010904/DTD/svg10.dtd">
<svg version="1.0" xmlns="http://www.w3.org/2000/svg" width="800px" height="800px" viewBox="0 0 8000 8000" preserveAspectRatio="xMidYMid meet">
<g id="layer101" fill="#999999" stroke="none">
 <path d="M3685 7994 c-288 -29 -484 -62 -700 -119 -572 -149 -1091 -417 -1565 -810 -117 -97 -380 -359 -482 -480 -504 -602 -812 -1309 -915 -2100 -26 -201 -26 -769 0 -970 63 -482 190 -900 402 -1320 202 -400 426 -708 754 -1035 636 -634 1427 -1019 2336 -1137 201 -26 769 -26 970 0 915 119 1703 504 2345 1147 642 641 1028 1431 1147 2345 26 201 26 769 0 970 -118 909 -503 1699 -1137 2336 -91 91 -208 201 -260 244 -610 504 -1281 800 -2055 906 -121 17 -214 21 -475 24 -179 1 -343 1 -365 -1z m-1405 -3109 l0 -575 710 0 710 0 0 -535 0 -535 735 0 735 0 0 -490 0 -490 840 0 c462 0 840 -2 840 -5 0 -12 -121 -185 -206 -295 -114 -147 -416 -450 -564 -564 -520 -403 -1085 -631 -1745 -707 -142 -17 -548 -17 -690 0 -660 76 -1225 304 -1745 707 -148 114 -450 416 -564 564 -400 517 -635 1094 -707 1740 -19 163 -16 572 4 736 41 333 138 693 256 957 l30 67 681 0 680 0 0 -575z"/>
 </g>

</svg>