<!DOCTYPE svg PUBLIC "-//W3C//DTD SVG 20010904//EN" "http://www.w3.org/TR/2001/REC-SVG-20010904/DTD/svg10.dtd">
<svg version="1.0" xmlns="http://www.w3.org/2000/svg" width="1080px" height="1080px" viewBox="0 0 10800 10800" preserveAspectRatio="xMidYMid meet">
<g id="layer101" fill="#c3073f" stroke="none">
 <path d="M4900 10688 c-74 -5 -144 -13 -155 -17 -11 -5 -76 -15 -145 -21 -69 -7 -129 -16 -135 -20 -5 -4 -48 -13 -95 -19 -47 -7 -94 -16 -105 -21 -11 -5 -49 -13 -85 -20 -36 -6 -74 -15 -85 -19 -11 -5 -47 -16 -80 -24 -116 -29 -190 -50 -200 -57 -5 -4 -35 -13 -65 -20 -30 -7 -59 -16 -65 -19 -5 -4 -28 -13 -50 -20 -22 -7 -49 -16 -60 -20 -11 -5 -58 -23 -105 -41 -99 -37 -91 -34 -240 -100 -183 -81 -450 -218 -527 -271 -23 -16 -44 -29 -48 -29 -9 0 -90 -54 -93 -62 -2 -5 -8 -8 -14 -8 -11 0 -132 -77 -183 -117 -34 -26 -44 -33 -67 -48 -64 -41 -339 -260 -346 -277 -2 -4 -10 -8 -18 -8 -17 0 -564 -543 -564 -560 0 -6 -39 -55 -86 -108 -47 -53 -89 -104 -92 -112 -3 -8 -30 -45 -59 -82 -29 -37 -53 -70 -53 -74 0 -3 -22 -34 -50 -69 -28 -35 -50 -67 -50 -71 0 -5 -14 -27 -30 -48 -17 -22 -30 -44 -30 -48 0 -5 -16 -30 -35 -55 -19 -25 -35 -52 -35 -59 0 -7 -6 -17 -13 -21 -7 -4 -18 -19 -25 -33 -7 -14 -32 -61 -56 -105 -40 -72 -151 -292 -212 -420 -13 -28 -24 -58 -24 -68 0 -9 -4 -17 -8 -17 -5 0 -15 -19 -22 -42 -8 -24 -19 -52 -26 -63 -7 -11 -16 -37 -19 -57 -4 -21 -11 -38 -15 -38 -4 0 -13 -21 -20 -47 -7 -27 -17 -53 -21 -59 -5 -6 -6 -13 -3 -17 3 -3 -1 -16 -9 -29 -9 -12 -19 -41 -23 -62 -4 -22 -13 -51 -20 -65 -8 -14 -14 -34 -14 -43 0 -9 -5 -20 -10 -23 -6 -4 -8 -11 -4 -16 3 -5 2 -15 -3 -22 -6 -7 -16 -39 -23 -72 -7 -33 -17 -64 -20 -70 -4 -5 -13 -41 -20 -80 -7 -38 -16 -74 -20 -80 -4 -5 -13 -50 -20 -100 -7 -49 -16 -94 -20 -100 -5 -5 -14 -57 -20 -115 -6 -58 -16 -114 -20 -125 -10 -23 -30 -246 -30 -330 0 -30 -4 -55 -10 -55 -6 0 -10 -130 -10 -370 0 -240 4 -370 10 -370 6 0 10 -25 10 -55 0 -84 20 -307 30 -330 4 -11 14 -67 20 -125 6 -58 15 -109 20 -115 4 -5 13 -50 20 -100 7 -49 16 -94 20 -100 4 -5 13 -41 20 -80 7 -38 15 -74 19 -80 9 -16 30 -98 31 -122 0 -13 5 -23 11 -23 6 0 9 -7 6 -15 -4 -8 -2 -17 3 -20 4 -3 11 -23 15 -45 4 -22 10 -40 15 -40 4 0 10 -19 14 -43 4 -23 14 -53 22 -65 9 -13 13 -26 10 -29 -3 -4 -2 -11 3 -17 4 -6 14 -32 21 -59 7 -26 16 -47 20 -47 4 0 11 -17 15 -37 3 -21 12 -47 19 -58 7 -11 18 -39 26 -63 7 -23 17 -42 22 -42 4 0 8 -8 8 -17 0 -10 11 -40 24 -68 66 -138 172 -349 211 -420 24 -44 50 -91 57 -105 7 -14 18 -29 25 -33 7 -4 13 -13 13 -19 0 -13 51 -91 62 -96 5 -2 8 -9 8 -16 0 -7 13 -30 30 -52 16 -21 30 -43 30 -48 0 -7 50 -76 90 -123 5 -7 10 -15 10 -18 0 -3 22 -33 48 -68 26 -34 55 -73 64 -87 8 -14 52 -66 97 -117 44 -50 81 -97 81 -103 0 -17 546 -560 563 -560 9 0 17 -4 19 -8 7 -17 282 -236 346 -277 23 -15 32 -21 89 -65 29 -22 56 -40 60 -40 4 0 26 -14 47 -30 22 -17 45 -30 52 -30 7 0 14 -3 16 -7 5 -12 83 -63 96 -63 6 0 15 -6 19 -13 4 -7 19 -18 33 -25 14 -7 61 -33 105 -57 170 -94 549 -275 576 -275 6 0 23 -6 37 -14 15 -8 61 -27 102 -41 41 -15 98 -35 125 -45 28 -11 64 -22 80 -26 17 -4 35 -10 40 -14 6 -4 26 -11 45 -15 19 -4 49 -13 65 -20 17 -7 57 -18 90 -25 33 -8 65 -17 70 -20 6 -4 42 -13 80 -20 39 -7 75 -16 80 -20 6 -4 51 -13 100 -20 50 -7 95 -16 100 -20 6 -5 57 -14 115 -20 58 -6 114 -16 125 -20 23 -10 246 -30 330 -30 30 0 55 -4 55 -10 0 -6 130 -10 370 -10 240 0 370 4 370 10 0 6 25 10 55 10 84 0 307 20 330 30 11 4 67 14 125 20 58 6 110 15 115 20 6 4 51 13 100 20 50 7 95 16 100 20 6 4 42 13 80 20 39 7 75 16 80 20 6 3 37 12 70 20 33 7 74 18 90 25 17 7 46 16 65 20 19 4 40 11 45 15 6 4 24 10 40 14 17 4 53 15 80 26 28 10 84 30 125 45 41 14 87 33 102 41 14 8 31 14 37 14 27 0 406 181 576 275 44 24 91 50 105 57 14 7 29 18 33 25 4 7 13 13 19 13 13 0 91 51 96 63 2 4 9 7 16 7 7 0 30 13 52 30 21 16 43 30 47 30 4 0 31 18 60 40 57 44 66 50 89 65 64 41 339 260 346 277 2 4 10 8 19 8 16 0 563 543 563 559 0 6 42 60 93 120 81 97 163 202 192 249 14 22 19 29 65 88 22 29 40 56 40 60 0 5 14 27 30 48 17 22 30 45 30 52 0 7 3 14 8 16 11 5 62 83 62 96 0 6 6 15 13 19 7 4 18 19 25 33 7 14 33 61 57 105 39 71 145 282 211 420 13 28 24 58 24 68 0 9 4 17 8 17 5 0 15 19 22 43 8 23 19 51 26 62 7 11 16 37 19 58 4 20 11 37 15 37 4 0 16 30 26 68 10 37 23 76 30 87 7 11 16 39 20 62 4 24 10 43 14 43 4 0 13 27 20 60 7 33 17 60 21 60 5 0 9 10 9 23 1 24 22 106 31 122 4 6 12 42 19 80 7 39 16 75 20 80 4 6 13 51 20 100 7 50 16 95 20 100 5 6 14 57 20 115 6 58 16 114 20 125 10 23 30 246 30 330 0 30 5 55 10 55 13 0 14 713 1 738 -5 9 -15 95 -21 191 -6 96 -16 181 -20 190 -5 9 -14 63 -20 121 -7 58 -15 110 -20 115 -4 6 -13 51 -20 100 -7 50 -16 95 -20 100 -4 6 -13 42 -20 80 -7 39 -16 75 -20 80 -4 6 -13 40 -21 78 -7 37 -16 67 -19 67 -4 0 -13 27 -20 60 -7 33 -16 60 -20 60 -4 0 -10 22 -14 50 -4 27 -13 55 -20 62 -7 8 -19 38 -26 68 -7 30 -18 64 -25 76 -8 12 -17 37 -20 57 -4 20 -13 41 -21 48 -8 6 -14 18 -14 27 0 15 -17 55 -66 158 -13 28 -24 58 -24 66 0 9 -6 21 -14 27 -8 7 -17 24 -21 39 -4 15 -12 34 -20 42 -7 8 -16 26 -20 40 -4 14 -11 30 -16 36 -8 9 -26 42 -106 194 -27 52 -35 65 -83 140 -19 30 -38 63 -42 72 -4 10 -12 18 -17 18 -5 0 -12 14 -16 31 -4 17 -13 33 -21 36 -8 3 -14 10 -14 16 0 5 -11 25 -25 43 -14 18 -25 37 -25 43 0 6 -9 15 -20 21 -11 6 -20 17 -20 25 0 8 -6 18 -12 22 -7 4 -17 15 -23 24 -31 51 -90 132 -125 172 -22 25 -40 49 -40 55 0 5 -11 17 -25 26 -14 9 -25 23 -25 30 0 8 -16 28 -35 45 -19 17 -35 33 -35 37 0 16 -388 418 -464 479 -28 23 -177 153 -218 190 -15 14 -30 25 -33 25 -4 0 -31 20 -59 45 -29 25 -58 45 -64 45 -6 0 -16 9 -22 20 -6 11 -15 20 -21 20 -9 0 -91 59 -131 95 -10 8 -21 15 -25 15 -3 0 -21 11 -39 25 -18 14 -37 25 -43 25 -5 0 -14 6 -18 13 -4 7 -19 18 -33 25 -14 6 -54 30 -89 52 -34 22 -67 40 -72 40 -5 0 -9 4 -9 9 0 5 -8 11 -17 15 -10 3 -45 21 -78 40 -33 19 -89 50 -125 68 -36 18 -67 36 -70 39 -3 3 -21 11 -40 19 -19 8 -37 17 -40 20 -3 3 -21 12 -40 19 -19 8 -66 28 -105 46 -38 18 -87 39 -107 46 -21 7 -38 16 -38 20 0 3 -13 9 -30 12 -16 4 -49 15 -73 26 -23 11 -56 23 -72 27 -17 4 -34 10 -40 14 -5 4 -31 13 -57 21 -27 7 -48 16 -48 20 0 4 -29 12 -65 19 -36 7 -68 16 -70 20 -3 5 -31 14 -63 21 -31 7 -61 16 -67 20 -5 4 -39 13 -75 19 -36 7 -69 16 -75 20 -5 4 -44 13 -85 20 -41 7 -79 16 -85 20 -5 4 -50 13 -100 20 -49 7 -94 16 -100 20 -5 4 -66 13 -135 20 -69 6 -134 16 -145 20 -61 27 -826 39 -1145 18z m1050 -237 c30 -5 98 -14 150 -20 133 -15 359 -58 515 -97 184 -46 501 -146 600 -189 17 -7 71 -30 120 -50 565 -233 1065 -552 1514 -966 234 -216 425 -430 633 -711 118 -159 146 -200 244 -357 158 -253 363 -678 444 -921 5 -14 18 -50 30 -80 12 -30 30 -84 40 -120 11 -36 29 -96 40 -135 23 -72 57 -201 66 -245 65 -311 74 -361 84 -455 5 -49 15 -121 22 -160 17 -98 17 -992 0 -1090 -7 -38 -17 -110 -22 -160 -10 -94 -19 -144 -84 -455 -9 -44 -43 -173 -66 -245 -11 -38 -29 -99 -40 -135 -10 -36 -28 -90 -40 -120 -12 -30 -25 -66 -30 -80 -81 -243 -286 -668 -444 -921 -98 -157 -126 -198 -244 -357 -208 -281 -399 -495 -633 -711 -449 -413 -945 -730 -1514 -966 -49 -21 -101 -42 -115 -48 -154 -65 -532 -178 -735 -221 -192 -40 -236 -48 -345 -61 -63 -8 -151 -20 -195 -27 -111 -17 -988 -17 -1100 0 -44 7 -129 19 -190 26 -186 24 -367 61 -590 123 -168 47 -439 136 -484 159 -14 8 -31 14 -36 14 -11 0 -190 78 -240 104 -16 9 -35 16 -41 16 -18 0 -273 133 -458 239 -160 92 -470 313 -696 498 -84 69 -366 343 -475 462 -103 112 -394 482 -440 559 -5 9 -25 38 -42 64 -18 26 -33 49 -33 53 0 3 -11 21 -25 39 -14 18 -25 36 -25 39 0 3 -17 32 -38 64 -21 32 -51 83 -66 113 -16 30 -39 73 -52 95 -13 22 -28 51 -34 64 -6 13 -30 64 -54 115 -184 383 -316 766 -394 1141 -40 195 -52 261 -61 350 -6 50 -16 126 -23 170 -17 111 -18 979 0 1085 7 41 17 116 22 165 10 94 19 144 84 455 9 44 43 173 66 245 11 39 29 99 40 135 10 36 28 90 40 120 12 30 25 66 30 80 81 244 287 670 444 921 123 195 182 280 340 484 150 194 349 410 537 584 449 414 949 733 1514 966 50 20 104 43 120 50 99 43 416 143 600 189 157 39 388 83 480 91 39 3 90 10 115 16 25 5 95 14 155 18 135 11 939 5 1015 -8z"/>
 <path d="M1243 7576 c-29 -7 -68 -25 -88 -40 -34 -26 -105 -120 -105 -141 0 -5 -12 -32 -25 -60 -14 -27 -25 -57 -25 -65 0 -8 -7 -24 -15 -34 -8 -11 -15 -27 -15 -36 0 -8 -8 -31 -19 -50 -10 -19 -22 -51 -26 -70 -4 -19 -13 -48 -21 -65 -26 -62 -42 -115 -108 -370 -49 -185 -102 -475 -122 -665 -2 -19 -9 -144 -15 -276 -16 -299 -2 -644 35 -904 31 -216 78 -438 144 -675 27 -96 102 -318 112 -330 4 -5 11 -26 15 -45 4 -19 13 -46 20 -60 32 -67 54 -117 60 -140 4 -14 13 -34 20 -45 6 -11 27 -54 45 -95 18 -41 43 -91 55 -110 12 -19 45 -80 74 -135 56 -107 74 -135 212 -345 169 -258 319 -438 579 -695 305 -301 414 -392 680 -571 80 -53 170 -114 201 -135 31 -20 71 -44 90 -53 19 -8 70 -36 114 -61 44 -25 123 -66 175 -91 103 -49 196 -93 221 -105 9 -4 54 -22 100 -39 46 -18 95 -38 109 -45 14 -7 41 -16 60 -20 19 -4 48 -13 65 -21 64 -27 114 -42 385 -112 146 -38 349 -78 465 -92 50 -6 108 -15 130 -20 22 -5 160 -15 306 -22 300 -13 684 -1 869 28 191 30 423 75 540 106 63 16 141 36 172 44 72 18 330 103 343 114 6 4 26 11 45 15 19 4 46 13 60 20 30 14 78 36 220 99 58 26 119 54 135 63 47 25 226 123 270 147 22 13 56 33 75 45 19 13 92 60 161 105 69 44 146 97 170 117 24 19 61 47 82 61 81 55 278 233 468 423 275 277 272 273 322 340 25 33 83 110 129 170 112 147 218 308 228 348 19 70 19 110 4 173 -13 52 -25 74 -60 108 -78 79 -34 76 -1169 76 l-995 0 0 528 c-1 561 -4 608 -49 671 -12 17 -35 40 -52 52 -67 47 -88 48 -996 49 l-853 0 0 588 c-1 625 -4 667 -49 731 -12 17 -35 40 -52 52 -67 47 -90 48 -961 49 l-818 0 0 640 c0 739 0 738 -76 814 -78 79 -43 76 -1086 75 -698 -1 -925 -4 -965 -13z m1887 -991 l0 -765 940 0 940 0 0 -710 0 -710 980 0 980 0 0 -650 0 -650 1115 0 1115 0 0 -21 c0 -12 -13 -38 -30 -59 -16 -21 -30 -43 -30 -49 0 -6 -4 -11 -10 -11 -5 0 -10 -5 -10 -11 0 -6 -22 -40 -50 -75 -27 -35 -50 -66 -50 -69 0 -3 -7 -13 -15 -22 -47 -54 -115 -143 -115 -151 0 -5 -11 -18 -25 -28 -14 -10 -25 -25 -25 -32 0 -17 -544 -562 -560 -562 -7 0 -25 -11 -39 -25 -42 -41 -148 -125 -158 -125 -5 0 -15 -9 -23 -20 -8 -11 -18 -20 -22 -20 -4 0 -34 -20 -67 -45 -32 -25 -62 -45 -65 -45 -3 0 -29 -17 -57 -37 -55 -39 -103 -68 -131 -79 -10 -3 -18 -10 -18 -15 0 -4 -21 -17 -47 -29 -26 -11 -50 -24 -53 -28 -9 -12 -209 -115 -345 -177 -38 -18 -91 -42 -116 -54 -25 -11 -50 -21 -55 -21 -5 -1 -27 -9 -49 -20 -22 -11 -47 -19 -55 -20 -9 0 -25 -7 -36 -15 -12 -8 -24 -12 -27 -8 -4 3 -12 1 -19 -4 -7 -5 -35 -16 -63 -23 -27 -7 -54 -16 -60 -20 -5 -4 -32 -13 -60 -19 -27 -7 -59 -17 -70 -22 -20 -8 -71 -22 -235 -60 -255 -60 -514 -95 -809 -111 -456 -24 -992 33 -1406 150 -38 11 -97 27 -130 37 -33 9 -73 22 -90 29 -16 8 -46 17 -65 21 -19 4 -39 11 -45 15 -5 4 -35 15 -65 24 -54 17 -66 22 -160 64 -25 11 -56 23 -70 27 -14 4 -27 10 -30 14 -7 9 -90 47 -128 60 -18 6 -52 23 -75 39 -23 15 -58 34 -77 42 -19 8 -37 16 -40 19 -7 9 -60 38 -100 57 -19 9 -51 29 -71 45 -20 16 -41 29 -46 29 -5 0 -27 13 -49 30 -21 16 -43 30 -47 30 -4 0 -32 18 -61 40 -29 22 -56 40 -60 40 -4 0 -40 26 -79 58 -40 33 -77 61 -84 63 -6 2 -57 45 -113 94 -57 50 -112 95 -123 102 -30 17 -357 346 -357 359 0 6 -20 30 -45 53 -25 23 -45 44 -45 47 0 3 -25 34 -55 69 -30 34 -55 65 -55 69 0 4 -34 49 -75 100 -41 51 -75 97 -75 101 0 5 -11 23 -25 41 -14 18 -25 37 -25 43 0 5 -6 14 -12 18 -7 4 -19 19 -26 32 -8 13 -23 40 -34 60 -11 20 -26 43 -32 51 -14 16 -44 70 -113 200 -83 157 -115 222 -173 360 -17 41 -35 84 -40 95 -5 11 -12 31 -15 45 -4 14 -13 39 -21 55 -18 40 -88 257 -104 320 -6 28 -16 59 -20 70 -32 75 -107 483 -132 715 -14 134 -14 792 0 925 14 126 46 332 72 455 30 148 88 376 107 420 6 14 14 41 18 60 4 19 11 40 15 45 5 6 14 33 21 60 7 28 18 59 26 70 7 11 13 26 13 35 0 8 6 27 14 42 8 14 19 43 26 65 7 21 19 47 26 58 8 11 14 26 14 34 0 7 9 29 21 47 l21 34 914 0 914 0 0 -765z"/>
 </g>

</svg>